<svg width="200" height="200" viewBox="0 0 475 275" fill="none" xmlns="http://www.w3.org/2000/svg">
<g id="layer1">
<g id="path4254" opacity="0.39512" filter="url(#filter0_f)">
<path d="M121.095 270.921L73.9667 268.617L67.6965 268.637L54.4143 267.624L53.7569 267.673C53.7569 267.673 31.691 266.574 34.3394 265.623C36.222 264.947 60.887 264.484 60.887 264.484L60.9375 264.492L73.697 263.749L81.3157 262.702L82.2764 262.612C61.5266 262.931 41.1484 263.19 26.6559 262.526L35.3722 262.192C18.0275 261.64 6.61696 260.333 6.61696 258.583C6.61696 255.788 35.7271 252.922 71.6442 252.182C107.562 251.442 136.672 253.109 136.672 255.904C136.672 256.616 134.784 257.332 131.379 258.016L132.525 257.908L146.684 256.993L148.015 255.989L147.779 255.991L139.52 253.207L159.764 252.583L166.304 252.849L168.984 252.485L222.97 251.281L233.859 251.636L237.129 251.034L305.835 249.745L280.988 251.492C292.715 251.691 313.312 251.476 325.723 251.6C334.839 249.084 362.521 246.82 395.27 246.145C435.442 245.318 468 247.196 468 250.338C468 252.326 454.968 254.344 435.233 255.768L455.831 256.522C458.055 257.639 449.026 258.032 436.767 258.607L400.982 257.391C399.097 257.441 397.192 257.488 395.268 257.528C382.535 257.79 370.567 257.78 360.158 257.545L344.112 258.903C347.558 259.088 350.899 259.279 354.242 259.469L347.127 259.604L371.163 260.027L412.038 261.01L443.625 262.498L410.942 263.125L371.719 262.419L364.201 262.252L408.767 263.349L346.674 263.649C346.674 263.649 346.111 263.303 343.387 262.825C340.979 262.402 338.994 262.319 341.954 262.112L335.212 261.837L307.417 262.052L284.544 262.212L271.465 262.481L268.195 261.925L270.925 261.736L266.829 261.968L268.195 261.97L271.465 262.481L274.734 262.993C274.734 262.993 260.185 265.51 248.743 266.102C237.301 266.694 225.798 266.422 217.527 266.486C199.03 266.631 167.936 266.662 163.033 266.496C158.13 266.33 159.218 266.128 158.128 265.973C157.118 265.828 161.108 265.66 161.719 265.636C158.32 265.734 154.933 265.832 151.588 265.93C141.112 266.237 130.514 266.347 119.984 266.537C108.354 266.746 85.127 267.121 85.127 267.121L93.1842 266.149L82.3967 267.132L87.3017 268.144L111.27 268.675L127.62 268.605C127.62 268.605 135.684 269.222 138.711 269.546L142.335 269.638L121.08 270.922L121.095 270.921ZM57.5832 267.386L58.9822 267.346L58.6114 267.309L57.5832 267.386L57.5832 267.386ZM339.861 261.349L320.087 260.111L303.081 260.429L319.413 260.158L339.861 261.349ZM252.784 261.949L233.889 261.856C233.669 261.879 233.451 261.901 233.231 261.924L252.784 261.949L252.784 261.949ZM337.045 258.54C339.954 258.322 342.622 258.124 345.777 257.889L334.736 258.431C335.517 258.466 336.282 258.503 337.045 258.54L337.045 258.54ZM328.887 258.178L349.721 257.21C346.196 257.061 342.935 256.882 339.995 256.673C317.038 256.529 294.877 256.387 283.344 256.311L282.923 257.08L274.191 257.037L220.254 259.396L192.055 256.658L190.841 256.751L162.389 254.289L172.317 255.841L161.006 255.91L183.744 256.185C183.744 256.185 203.365 257.784 204.999 257.973C206.574 258.155 220.779 259.463 221.855 259.563L224.063 259.361C224.063 259.361 269.298 257.316 271.477 257.182C271.859 257.159 271.136 257.286 269.589 257.515L272.017 257.261C297.81 257.24 315.06 257.626 328.888 258.178L328.887 258.178ZM413.3 254.965C417.709 254.735 421.801 254.462 425.452 254.157C423.005 253.927 420.642 253.581 418.39 253.216C416.347 253.183 414.299 253.15 412.305 253.119C407.631 253.512 401.727 253.818 395.281 253.969C394.741 254.059 394.189 254.153 393.646 254.245L413.3 254.965L413.3 254.965ZM432.329 253.488C439.305 252.69 443.505 251.762 443.505 250.843C443.505 250.837 443.505 250.831 443.505 250.825C439.218 250.896 433.774 250.908 428.251 250.904C426.423 251.016 424.603 251.127 422.823 251.238C422.658 251.757 420.213 252.278 416.267 252.731C417.124 252.876 418.029 253.025 418.93 253.173C424.019 253.258 428.906 253.356 432.33 253.488L432.329 253.488ZM390.629 254.135C390.537 254.107 390.453 254.079 390.359 254.052C389.801 254.058 389.238 254.062 388.691 254.064L390.629 254.135ZM71.3664 260.552C71.459 260.55 71.56 260.548 71.653 260.546C81.7091 260.339 90.9432 259.877 98.2173 259.273C96.0984 259.075 94.052 258.777 92.0986 258.464C90.3437 258.436 88.587 258.409 86.8734 258.383C82.6946 258.732 77.417 259.005 71.6527 259.14C70.8156 259.28 69.9825 259.423 69.1412 259.566C70.2722 259.916 71.2172 260.263 71.3662 260.552L71.3664 260.552ZM63.0061 260.657C64.0338 260.349 66.1188 259.959 68.4166 259.562C68.0306 259.445 67.6503 259.328 67.2536 259.214C60.6753 259.28 54.8846 259.136 50.8867 258.839C49.9201 258.872 48.9551 258.907 47.9876 258.941C44.718 259.345 41.3926 259.73 38.3802 259.982C44.4476 260.452 53.0976 260.701 63.006 260.657L63.0061 260.657ZM352.096 254.405C352.95 254.355 353.916 254.304 354.928 254.254L365.193 253.204L369.086 253.346C366.887 253.076 365.631 252.742 365.631 252.359C365.631 252.122 366.112 251.883 366.996 251.65C366.489 251.625 365.974 251.602 365.462 251.577C359.148 251.715 352.995 251.828 348.657 251.831C347.619 252.161 347.056 252.496 347.056 252.83C347.056 253.12 347.489 253.394 348.286 253.649C352.1 253.78 354.007 253.901 355.298 253.908L351.961 254.386C352.006 254.392 352.05 254.399 352.096 254.405L352.096 254.405ZM355.298 253.908L359.732 253.272C357.546 253.764 356.834 253.916 355.298 253.908ZM324.217 254.518C323.124 254.148 322.548 253.752 322.548 253.334C322.548 253.101 322.739 252.868 323.088 252.635C316.696 252.47 306.579 252.493 296.54 252.482L273.65 252.196L275.032 251.658L244.776 251.099L272.554 251.995C272.554 251.995 267.358 252.103 261.194 252.263C263.705 252.318 287.974 252.841 291.078 252.861C292.645 252.872 287.713 253.159 282.145 253.456L307.429 253.147V253.548L303.569 253.606L279.735 254.814L283.51 255.067L288.904 254.42L313.969 253.414C313.969 253.414 318.955 253.996 324.217 254.518L324.217 254.518ZM104.27 258.686C110.412 257.986 114.113 257.173 114.113 256.368C114.113 256.363 114.114 256.357 114.113 256.352C110.398 256.413 105.7 256.425 100.915 256.423C99.3567 256.518 97.7985 256.613 96.2801 256.707C96.1318 257.169 93.9427 257.633 90.4143 258.036C91.1523 258.16 91.9323 258.287 92.7067 258.414C97.1045 258.487 101.306 258.572 104.27 258.685L104.27 258.686ZM275.689 254.541L301.815 253.631L269.285 254.111L275.69 254.541L275.689 254.541ZM33.6275 259.496C37.1271 259.291 42.2846 259.09 47.6346 258.898C48.1669 258.831 48.7076 258.765 49.2359 258.698C46.654 258.443 45.14 258.106 45.14 257.711C45.14 257.5 45.5795 257.288 46.3704 257.081C45.9764 257.061 45.5718 257.042 45.1737 257.023C39.6914 257.142 34.3624 257.24 30.5938 257.243C29.6791 257.532 29.1947 257.826 29.1947 258.118C29.1947 258.646 30.7963 259.112 33.6278 259.496L33.6275 259.496ZM428.182 250.853C433.263 250.545 438.3 250.255 442.442 250.082C440.073 249.254 433.817 248.619 425.148 248.262C422.31 248.567 418.174 248.917 413.821 249.266C413.467 249.411 413.112 249.554 412.776 249.697C417.863 249.929 421.409 250.329 422.485 250.844C424.359 250.848 426.267 250.851 428.182 250.853L428.182 250.853ZM365.646 251.524C366.344 251.509 367.038 251.493 367.737 251.477C370.872 250.815 377.25 250.216 385.182 249.848C385.235 249.758 385.291 249.668 385.334 249.578C381.74 249.301 378.354 249.02 376.35 248.757C365.915 249.321 357.395 250.125 352.28 251.017C356.248 251.094 360.955 251.298 365.647 251.524L365.646 251.524ZM100.877 256.363C105.263 256.099 109.607 255.85 113.181 255.701C111.096 254.976 105.577 254.42 97.9439 254.108C95.4882 254.371 91.9272 254.673 88.1677 254.973C87.8669 255.096 87.5766 255.217 87.2912 255.337C91.8389 255.543 95.0097 255.899 95.972 256.357C97.5827 256.36 99.2319 256.361 100.877 256.363L100.877 256.363ZM409.233 249.569C410.556 249.465 411.883 249.361 413.211 249.255C414.337 248.808 415.601 248.371 417.206 248.027C410.625 247.899 403.177 247.903 395.277 248.066C391.909 248.135 388.624 248.23 385.45 248.346C386.106 248.666 386.095 249.096 385.905 249.54C386.691 249.6 387.473 249.659 388.265 249.718C390.193 249.647 392.165 249.59 394.215 249.547C399.717 249.434 404.872 249.449 409.233 249.569V249.569ZM45.3428 256.963C45.903 256.951 46.4675 256.938 47.0284 256.925C49.8318 256.336 55.5446 255.803 62.6369 255.475C62.6807 255.401 62.7029 255.327 62.738 255.253C59.6335 255.015 56.7196 254.773 54.9845 254.547C45.7962 255.041 38.3005 255.746 33.7972 256.529C37.2281 256.594 41.2854 256.77 45.3431 256.963L45.3428 256.963ZM245.991 252.784C249.872 252.639 253.325 252.51 256.425 252.394C254.292 252.455 252.174 252.521 250.222 252.589C249.023 252.631 247.583 252.699 245.991 252.784L245.991 252.784ZM182.663 253.669L159.233 253.796L159.604 253.856L182.663 253.669L182.663 253.669ZM84.124 255.225C85.2417 255.138 86.3564 255.049 87.4783 254.96C88.4573 254.575 89.5606 254.2 90.9505 253.904C85.156 253.792 78.6074 253.796 71.6511 253.939C68.6853 254 65.7983 254.083 63.0043 254.186C63.5723 254.461 63.5674 254.831 63.4089 255.212C64.0613 255.262 64.7222 255.311 65.3809 255.36C67.1045 255.296 68.8744 255.244 70.7073 255.206C75.6271 255.105 80.2246 255.119 84.1243 255.225L84.124 255.225Z" fill="#0E232E"/>
<path d="M121.095 270.921L73.9667 268.617L67.6965 268.637L54.4143 267.624L53.7569 267.673C53.7569 267.673 31.691 266.574 34.3394 265.623C36.222 264.947 60.887 264.484 60.887 264.484L60.9375 264.492L73.697 263.749L81.3157 262.702L82.2764 262.612C61.5266 262.931 41.1484 263.19 26.6559 262.526L35.3722 262.192C18.0275 261.64 6.61696 260.333 6.61696 258.583C6.61696 255.788 35.7271 252.922 71.6442 252.182C107.562 251.442 136.672 253.109 136.672 255.904C136.672 256.616 134.784 257.332 131.379 258.016L132.525 257.908L146.684 256.993L148.015 255.989L147.779 255.991L139.52 253.207L159.764 252.583L166.304 252.849L168.984 252.485L222.97 251.281L233.859 251.636L237.129 251.034L305.835 249.745L280.988 251.492C292.715 251.691 313.312 251.476 325.723 251.6C334.839 249.084 362.521 246.82 395.27 246.145C435.442 245.318 468 247.196 468 250.338C468 252.326 454.968 254.344 435.233 255.768L455.831 256.522C458.055 257.639 449.026 258.032 436.767 258.607L400.982 257.391C399.097 257.441 397.192 257.488 395.268 257.528C382.535 257.79 370.567 257.78 360.158 257.545L344.112 258.903C347.558 259.088 350.899 259.279 354.242 259.469L347.127 259.604L371.163 260.027L412.038 261.01L443.625 262.498L410.942 263.125L371.719 262.419L364.201 262.252L408.767 263.349L346.674 263.649C346.674 263.649 346.111 263.303 343.387 262.825C340.979 262.402 338.994 262.319 341.954 262.112L335.212 261.837L307.417 262.052L284.544 262.212L271.465 262.481L268.195 261.925L270.925 261.736L266.829 261.968L268.195 261.97L271.465 262.481L274.734 262.993C274.734 262.993 260.185 265.51 248.743 266.102C237.301 266.694 225.798 266.422 217.527 266.486C199.03 266.631 167.936 266.662 163.033 266.496C158.13 266.33 159.218 266.128 158.128 265.973C157.118 265.828 161.108 265.66 161.719 265.636C158.32 265.734 154.933 265.832 151.588 265.93C141.112 266.237 130.514 266.347 119.984 266.537C108.354 266.746 85.127 267.121 85.127 267.121L93.1842 266.149L82.3967 267.132L87.3017 268.144L111.27 268.675L127.62 268.605C127.62 268.605 135.684 269.222 138.711 269.546L142.335 269.638L121.08 270.922L121.095 270.921ZM57.5832 267.386L58.9822 267.346L58.6114 267.309L57.5832 267.386L57.5832 267.386ZM339.861 261.349L320.087 260.111L303.081 260.429L319.413 260.158L339.861 261.349ZM252.784 261.949L233.889 261.856C233.669 261.879 233.451 261.901 233.231 261.924L252.784 261.949L252.784 261.949ZM337.045 258.54C339.954 258.322 342.622 258.124 345.777 257.889L334.736 258.431C335.517 258.466 336.282 258.503 337.045 258.54L337.045 258.54ZM328.887 258.178L349.721 257.21C346.196 257.061 342.935 256.882 339.995 256.673C317.038 256.529 294.877 256.387 283.344 256.311L282.923 257.08L274.191 257.037L220.254 259.396L192.055 256.658L190.841 256.751L162.389 254.289L172.317 255.841L161.006 255.91L183.744 256.185C183.744 256.185 203.365 257.784 204.999 257.973C206.574 258.155 220.779 259.463 221.855 259.563L224.063 259.361C224.063 259.361 269.298 257.316 271.477 257.182C271.859 257.159 271.136 257.286 269.589 257.515L272.017 257.261C297.81 257.24 315.06 257.626 328.888 258.178L328.887 258.178ZM413.3 254.965C417.709 254.735 421.801 254.462 425.452 254.157C423.005 253.927 420.642 253.581 418.39 253.216C416.347 253.183 414.299 253.15 412.305 253.119C407.631 253.512 401.727 253.818 395.281 253.969C394.741 254.059 394.189 254.153 393.646 254.245L413.3 254.965L413.3 254.965ZM432.329 253.488C439.305 252.69 443.505 251.762 443.505 250.843C443.505 250.837 443.505 250.831 443.505 250.825C439.218 250.896 433.774 250.908 428.251 250.904C426.423 251.016 424.603 251.127 422.823 251.238C422.658 251.757 420.213 252.278 416.267 252.731C417.124 252.876 418.029 253.025 418.93 253.173C424.019 253.258 428.906 253.356 432.33 253.488L432.329 253.488ZM390.629 254.135C390.537 254.107 390.453 254.079 390.359 254.052C389.801 254.058 389.238 254.062 388.691 254.064L390.629 254.135ZM71.3664 260.552C71.459 260.55 71.56 260.548 71.653 260.546C81.7091 260.339 90.9432 259.877 98.2173 259.273C96.0984 259.075 94.052 258.777 92.0986 258.464C90.3437 258.436 88.587 258.409 86.8734 258.383C82.6946 258.732 77.417 259.005 71.6527 259.14C70.8156 259.28 69.9825 259.423 69.1412 259.566C70.2722 259.916 71.2172 260.263 71.3662 260.552L71.3664 260.552ZM63.0061 260.657C64.0338 260.349 66.1188 259.959 68.4166 259.562C68.0306 259.445 67.6503 259.328 67.2536 259.214C60.6753 259.28 54.8846 259.136 50.8867 258.839C49.9201 258.872 48.9551 258.907 47.9876 258.941C44.718 259.345 41.3926 259.73 38.3802 259.982C44.4476 260.452 53.0976 260.701 63.006 260.657L63.0061 260.657ZM352.096 254.405C352.95 254.355 353.916 254.304 354.928 254.254L365.193 253.204L369.086 253.346C366.887 253.076 365.631 252.742 365.631 252.359C365.631 252.122 366.112 251.883 366.996 251.65C366.489 251.625 365.974 251.602 365.462 251.577C359.148 251.715 352.995 251.828 348.657 251.831C347.619 252.161 347.056 252.496 347.056 252.83C347.056 253.12 347.489 253.394 348.286 253.649C352.1 253.78 354.007 253.901 355.298 253.908L351.961 254.386C352.006 254.392 352.05 254.399 352.096 254.405L352.096 254.405ZM355.298 253.908L359.732 253.272C357.546 253.764 356.834 253.916 355.298 253.908ZM324.217 254.518C323.124 254.148 322.548 253.752 322.548 253.334C322.548 253.101 322.739 252.868 323.088 252.635C316.696 252.47 306.579 252.493 296.54 252.482L273.65 252.196L275.032 251.658L244.776 251.099L272.554 251.995C272.554 251.995 267.358 252.103 261.194 252.263C263.705 252.318 287.974 252.841 291.078 252.861C292.645 252.872 287.713 253.159 282.145 253.456L307.429 253.147V253.548L303.569 253.606L279.735 254.814L283.51 255.067L288.904 254.42L313.969 253.414C313.969 253.414 318.955 253.996 324.217 254.518L324.217 254.518ZM104.27 258.686C110.412 257.986 114.113 257.173 114.113 256.368C114.113 256.363 114.114 256.357 114.113 256.352C110.398 256.413 105.7 256.425 100.915 256.423C99.3567 256.518 97.7985 256.613 96.2801 256.707C96.1318 257.169 93.9427 257.633 90.4143 258.036C91.1523 258.16 91.9323 258.287 92.7067 258.414C97.1045 258.487 101.306 258.572 104.27 258.685L104.27 258.686ZM275.689 254.541L301.815 253.631L269.285 254.111L275.69 254.541L275.689 254.541ZM33.6275 259.496C37.1271 259.291 42.2846 259.09 47.6346 258.898C48.1669 258.831 48.7076 258.765 49.2359 258.698C46.654 258.443 45.14 258.106 45.14 257.711C45.14 257.5 45.5795 257.288 46.3704 257.081C45.9764 257.061 45.5718 257.042 45.1737 257.023C39.6914 257.142 34.3624 257.24 30.5938 257.243C29.6791 257.532 29.1947 257.826 29.1947 258.118C29.1947 258.646 30.7963 259.112 33.6278 259.496L33.6275 259.496ZM428.182 250.853C433.263 250.545 438.3 250.255 442.442 250.082C440.073 249.254 433.817 248.619 425.148 248.262C422.31 248.567 418.174 248.917 413.821 249.266C413.467 249.411 413.112 249.554 412.776 249.697C417.863 249.929 421.409 250.329 422.485 250.844C424.359 250.848 426.267 250.851 428.182 250.853L428.182 250.853ZM365.646 251.524C366.344 251.509 367.038 251.493 367.737 251.477C370.872 250.815 377.25 250.216 385.182 249.848C385.235 249.758 385.291 249.668 385.334 249.578C381.74 249.301 378.354 249.02 376.35 248.757C365.915 249.321 357.395 250.125 352.28 251.017C356.248 251.094 360.955 251.298 365.647 251.524L365.646 251.524ZM100.877 256.363C105.263 256.099 109.607 255.85 113.181 255.701C111.096 254.976 105.577 254.42 97.9439 254.108C95.4882 254.371 91.9272 254.673 88.1677 254.973C87.8669 255.096 87.5766 255.217 87.2912 255.337C91.8389 255.543 95.0097 255.899 95.972 256.357C97.5827 256.36 99.2319 256.361 100.877 256.363L100.877 256.363ZM409.233 249.569C410.556 249.465 411.883 249.361 413.211 249.255C414.337 248.808 415.601 248.371 417.206 248.027C410.625 247.899 403.177 247.903 395.277 248.066C391.909 248.135 388.624 248.23 385.45 248.346C386.106 248.666 386.095 249.096 385.905 249.54C386.691 249.6 387.473 249.659 388.265 249.718C390.193 249.647 392.165 249.59 394.215 249.547C399.717 249.434 404.872 249.449 409.233 249.569V249.569ZM45.3428 256.963C45.903 256.951 46.4675 256.938 47.0284 256.925C49.8318 256.336 55.5446 255.803 62.6369 255.475C62.6807 255.401 62.7029 255.327 62.738 255.253C59.6335 255.015 56.7196 254.773 54.9845 254.547C45.7962 255.041 38.3005 255.746 33.7972 256.529C37.2281 256.594 41.2854 256.77 45.3431 256.963L45.3428 256.963ZM245.991 252.784C249.872 252.639 253.325 252.51 256.425 252.394C254.292 252.455 252.174 252.521 250.222 252.589C249.023 252.631 247.583 252.699 245.991 252.784L245.991 252.784ZM182.663 253.669L159.233 253.796L159.604 253.856L182.663 253.669L182.663 253.669ZM84.124 255.225C85.2417 255.138 86.3564 255.049 87.4783 254.96C88.4573 254.575 89.5606 254.2 90.9505 253.904C85.156 253.792 78.6074 253.796 71.6511 253.939C68.6853 254 65.7983 254.083 63.0043 254.186C63.5723 254.461 63.5674 254.831 63.4089 255.212C64.0613 255.262 64.7222 255.311 65.3809 255.36C67.1045 255.296 68.8744 255.244 70.7073 255.206C75.6271 255.105 80.2246 255.119 84.1243 255.225L84.124 255.225Z" stroke="#7D7D7C" stroke-width="0.479229" stroke-linecap="square"/>
</g>
<g id="path4181" filter="url(#filter1_f)">
<path d="M113.141 5.98518L67.4861 48.1021L61.4118 49.5014L48.5447 66.0439L47.9078 65.5834C47.9078 65.5834 26.5314 85.5605 29.097 97.0918C30.9208 105.288 54.815 104.708 54.815 104.708L54.864 104.584L67.2248 110.765L74.6054 122.207L75.5361 123.11C55.4347 124.51 35.6933 126.568 21.6536 138.944L30.0976 140.939C13.2949 152.628 2.24091 172.458 2.24091 194.958C2.24091 230.901 30.4414 260.045 65.2361 260.045C100.032 260.045 128.231 230.898 128.231 194.958C128.231 185.808 126.403 177.106 123.104 169.206L124.214 170.286L137.931 178.309L139.221 190.866L138.992 190.902L130.991 228.892L150.602 231.549L156.938 226.395L159.534 230.362L211.833 231.549L222.382 224.11L225.55 230.982L292.108 229.352L268.038 213.472C279.399 207.807 299.352 205.125 311.375 200.241C320.206 230.181 347.023 251.958 378.749 251.958C417.666 251.958 449.206 219.187 449.206 178.778C449.206 153.221 436.581 130.726 417.463 117.636L437.417 102.493C439.572 87.5336 430.825 84.8766 418.949 80.7262L384.283 105.84C382.456 105.693 380.611 105.592 378.747 105.592C366.412 105.592 354.818 108.895 344.734 114.678L329.189 101.466C332.528 98.164 335.765 94.8326 339.003 91.4944L332.111 91.6531L355.395 79.8395L394.992 56.3723L425.592 28.8845L393.931 29.469L355.933 48.9337L348.65 53.0782L391.824 27.1665L331.671 39.7593C331.671 39.7593 331.126 44.3483 328.487 51.2186C326.154 57.292 324.231 58.8937 327.099 60.7651L320.568 66.0961L293.641 70.6834L271.483 74.6861H258.812L255.644 82.7092L258.29 84.4094L254.322 82.5143L255.644 82.1246L258.812 74.6859L261.98 67.2472C261.98 67.2472 247.885 38.7251 236.801 34.1451C225.716 29.565 214.573 36.1163 206.56 37.4748C188.641 40.5127 158.519 48.3504 153.769 51.7855C149.019 55.2206 150.073 57.5188 149.018 59.8085C148.039 61.9312 151.904 63.0362 152.496 63.1914C149.204 62.823 145.922 62.4672 142.682 62.0933C132.533 60.9221 122.267 62.3054 112.066 62.6601C100.798 63.0517 78.2976 64.378 78.2976 64.378L86.103 74.7389L75.6526 64.9623L80.4043 50.6517L103.624 37.4745L119.463 34.0386C119.463 34.0386 127.275 23.965 130.207 19.0019L133.718 16.8589L113.127 5.9839L113.141 5.98518ZM51.6145 68.2606L52.9698 68.4023L52.6106 68.9868L51.6145 68.2606H51.6145ZM325.071 71.1398L305.915 92.2912L289.44 92.6993L305.262 91.8661L325.071 71.1398ZM240.715 86.4819L222.411 92.6766C222.198 92.4479 221.987 92.2121 221.774 91.9858L240.715 86.4776L240.715 86.4819ZM322.343 108.001C325.162 110.029 327.746 111.873 330.802 114.059L320.106 110.018C320.863 109.35 321.604 108.673 322.343 107.999L322.343 108.001ZM314.44 114.82L334.623 121.745C331.208 124.599 328.049 127.764 325.201 131.221C302.961 139.153 281.493 146.858 270.321 150.88L269.912 141.104L261.454 143.973L209.202 127.927L181.884 170.593L180.708 169.725L153.145 208.92L162.763 186.338L151.806 188.446L173.833 178.882C173.833 178.882 192.84 153.123 194.424 150.26C195.949 147.503 209.71 126.919 210.753 125.358L212.892 127.36C212.892 127.36 256.713 141.676 258.824 142.821C259.195 143.022 258.494 141.582 256.996 139.049L259.347 141.67C284.334 135.11 301.045 125.571 314.442 114.82L314.44 114.82ZM396.215 133.771C400.487 135.56 404.451 137.995 407.988 140.944C405.618 144.546 403.328 149.628 401.146 154.918C399.167 155.882 397.183 156.85 395.251 157.77C390.724 153.957 385.004 151.59 378.76 151.358C378.237 150.334 377.702 149.281 377.176 148.241L396.215 133.771L396.215 133.771ZM414.65 147.728C421.407 156.139 425.476 166.963 425.476 178.775C425.476 178.852 425.477 178.928 425.476 179.005C421.323 179.233 416.049 180.524 410.699 182.034C408.928 181.082 407.165 180.132 405.441 179.183C405.281 172.55 402.912 166.489 399.089 161.72C399.92 159.626 400.797 157.47 401.669 155.326C406.599 152.886 411.334 150.333 414.651 147.728L414.65 147.728ZM374.253 150.455C374.163 150.83 374.082 151.215 373.992 151.589C373.451 151.664 372.906 151.764 372.375 151.872L374.253 150.455ZM64.967 152.492C65.0566 152.492 65.1545 152.492 65.2446 152.492C74.9865 152.492 83.9321 155.98 90.9788 161.826C88.9262 164.929 86.9437 169.301 85.0513 173.852C83.3513 174.674 81.6495 175.492 79.9894 176.278C75.9412 172.887 70.8285 170.782 65.2443 170.576C64.4334 168.996 63.6263 167.378 62.8114 165.758C63.9069 160.958 64.8224 156.25 64.9668 152.493L64.967 152.492ZM56.8679 153.36C57.8636 157.043 59.8834 161.508 62.1093 166.005C61.7355 167.611 61.367 169.213 60.9827 170.787C54.61 171.676 49.0002 175.065 45.1273 179.944C44.1909 179.767 43.2561 179.581 42.3187 179.395C39.1513 175.073 35.9298 170.999 33.0115 168.556C38.8894 160.907 47.2691 155.413 56.8678 153.36L56.8679 153.36ZM336.924 157.185C337.751 157.604 338.687 158.001 339.667 158.372L349.611 169.158L353.383 166.307C351.253 170.351 350.036 174.981 350.036 179.909C350.036 182.957 350.502 185.903 351.358 188.658C350.868 189.116 350.368 189.553 349.873 190.004C343.755 189.912 337.794 190.082 333.593 191.191C332.587 187.231 332.042 183.065 332.042 178.776C332.042 175.043 332.461 171.41 333.234 167.919C336.928 165.225 338.775 163.163 340.026 162.729L336.793 157.469C336.837 157.376 336.879 157.279 336.924 157.186L336.924 157.185ZM340.026 162.729L344.321 169.725C342.203 163.983 341.514 162.213 340.026 162.729ZM309.916 163.119C308.858 168.162 308.299 173.402 308.299 178.775C308.299 181.775 308.484 184.726 308.822 187.631C302.63 191.436 292.829 193.83 283.104 196.628L260.929 206.37L262.268 212.923L232.958 228.118L259.868 209.239C259.868 209.239 254.834 209.227 248.862 208.796C251.295 207.435 274.806 194.279 277.813 193.192C279.33 192.644 274.553 190.254 269.159 187.914L293.652 185.187V180.033L289.913 180.316L266.824 171.089L270.482 166.838L275.707 173.728L299.988 180.024C299.988 180.024 304.818 171.215 309.916 163.11L309.916 163.119ZM96.8421 167.777C102.792 175.145 106.378 184.617 106.378 194.963C106.378 195.031 106.378 195.108 106.378 195.176C102.779 195.372 98.2273 196.466 93.5926 197.762C92.0826 196.954 90.5731 196.141 89.1021 195.335C88.9585 189.437 86.8378 184.044 83.4197 179.803C84.1346 178.011 84.8902 176.165 85.6404 174.33C89.9007 172.226 93.971 170.019 96.8422 167.777L96.8421 167.777ZM262.905 175.676L288.215 180.458L256.7 182.902L262.905 175.676H262.905ZM28.4074 176.062C31.7977 177.766 36.7939 178.99 41.9768 180.047C42.4925 180.762 43.0162 181.471 43.5281 182.19C41.0268 186.16 39.5602 190.889 39.5602 195.969C39.5602 198.68 39.9859 201.293 40.7521 203.744C40.3704 204.098 39.9785 204.458 39.5928 204.807C34.2818 204.733 29.1193 204.876 25.4685 205.834C24.5824 202.365 24.1132 198.716 24.1132 194.959C24.1132 188.168 25.6647 181.755 28.4076 176.061L28.4074 176.062ZM410.632 182.703C415.555 185.321 420.435 187.721 424.447 188.849C422.152 200.119 416.091 209.94 407.694 216.833C404.944 213.661 400.937 210.25 396.721 206.915C396.377 205.151 396.033 203.398 395.708 201.655C400.635 197.32 404.071 191.235 405.114 184.333C406.929 183.791 408.777 183.24 410.632 182.704L410.632 182.703ZM350.051 190.638C350.727 190.651 351.399 190.673 352.076 190.691C355.113 198.378 361.292 204.383 368.976 207.021C369.028 208.167 369.082 209.307 369.123 210.457C365.642 214.967 362.361 219.476 360.42 223.385C350.311 218.903 342.057 210.822 337.103 200.698C340.946 198.657 345.506 194.785 350.051 190.638L350.051 190.638ZM93.5555 198.537C97.8039 200.778 102.012 202.829 105.475 203.798C103.455 213.669 98.1087 222.273 90.714 228.31C88.335 225.58 84.8853 222.646 81.2433 219.773C80.9518 218.281 80.6706 216.804 80.3942 215.328C84.7998 211.473 87.8715 206.058 88.8037 199.919C90.3641 199.455 91.9617 198.996 93.5554 198.537L93.5555 198.537ZM392.276 204.24C393.557 205.222 394.843 206.21 396.13 207.216C397.22 212.666 398.444 217.961 400 221.951C393.624 225.338 386.409 227.265 378.756 227.265C375.493 227.265 372.311 226.916 369.236 226.255C369.872 221.969 369.861 216.446 369.677 210.794C370.438 209.813 371.195 208.841 371.963 207.871C373.83 208.281 375.741 208.491 377.727 208.491C383.057 208.491 388.051 206.932 392.276 204.24V204.24ZM39.7566 205.532C40.2993 205.543 40.8462 205.553 41.3895 205.568C44.1054 212.405 49.6396 217.745 56.5102 220.091C56.5527 221.028 56.5742 221.969 56.6082 222.907C53.6007 226.792 50.7779 230.68 49.097 234.047C40.1958 230.122 32.9343 223.044 28.5718 214.176C31.8954 212.42 35.826 209.092 39.7569 205.533L39.7566 205.532ZM234.135 206.135C237.894 206.963 241.239 207.704 244.242 208.384C242.177 208.158 240.124 207.878 238.233 207.516C237.072 207.294 235.677 206.804 234.135 206.135L234.135 206.135ZM172.785 211.519L150.088 216.088L150.447 215.22L172.785 211.519L172.785 211.519ZM77.3259 217.611C78.4087 218.437 79.4885 219.282 80.5754 220.126C81.5238 224.815 82.5926 229.354 83.9391 232.79C78.3257 235.757 71.9817 237.448 65.2428 237.448C62.3697 237.448 59.5729 237.141 56.8662 236.563C57.4164 232.872 57.4117 228.125 57.2581 223.261C57.8902 222.452 58.5304 221.636 59.1686 220.835C60.8383 221.199 62.5529 221.402 64.3285 221.402C69.0945 221.402 73.5484 220.005 77.3262 217.612L77.3259 217.611Z" fill="#666666"/>
<path d="M113.141 5.98518L67.4861 48.1021L61.4118 49.5014L48.5447 66.0439L47.9078 65.5834C47.9078 65.5834 26.5314 85.5605 29.097 97.0918C30.9208 105.288 54.815 104.708 54.815 104.708L54.864 104.584L67.2248 110.765L74.6054 122.207L75.5361 123.11C55.4347 124.51 35.6933 126.568 21.6536 138.944L30.0976 140.939C13.2949 152.628 2.24091 172.458 2.24091 194.958C2.24091 230.901 30.4414 260.045 65.2361 260.045C100.032 260.045 128.231 230.898 128.231 194.958C128.231 185.808 126.403 177.106 123.104 169.206L124.214 170.286L137.931 178.309L139.221 190.866L138.992 190.902L130.991 228.892L150.602 231.549L156.938 226.395L159.534 230.362L211.833 231.549L222.382 224.11L225.55 230.982L292.108 229.352L268.038 213.472C279.399 207.807 299.352 205.125 311.375 200.241C320.206 230.181 347.023 251.958 378.749 251.958C417.666 251.958 449.206 219.187 449.206 178.778C449.206 153.221 436.581 130.726 417.463 117.636L437.417 102.493C439.572 87.5336 430.825 84.8766 418.949 80.7262L384.283 105.84C382.456 105.693 380.611 105.592 378.747 105.592C366.412 105.592 354.818 108.895 344.734 114.678L329.189 101.466C332.528 98.164 335.765 94.8326 339.003 91.4944L332.111 91.6531L355.395 79.8395L394.992 56.3723L425.592 28.8845L393.931 29.469L355.933 48.9337L348.65 53.0782L391.824 27.1665L331.671 39.7593C331.671 39.7593 331.126 44.3483 328.487 51.2186C326.154 57.292 324.231 58.8937 327.099 60.7651L320.568 66.0961L293.641 70.6834L271.483 74.6861H258.812L255.644 82.7092L258.29 84.4094L254.322 82.5143L255.644 82.1246L258.812 74.6859L261.98 67.2472C261.98 67.2472 247.885 38.7251 236.801 34.1451C225.716 29.565 214.573 36.1163 206.56 37.4748C188.641 40.5127 158.519 48.3504 153.769 51.7855C149.019 55.2206 150.073 57.5188 149.018 59.8085C148.039 61.9312 151.904 63.0362 152.496 63.1914C149.204 62.823 145.922 62.4672 142.682 62.0933C132.533 60.9221 122.267 62.3054 112.066 62.6601C100.798 63.0517 78.2976 64.378 78.2976 64.378L86.103 74.7389L75.6526 64.9623L80.4043 50.6517L103.624 37.4745L119.463 34.0386C119.463 34.0386 127.275 23.965 130.207 19.0019L133.718 16.8589L113.127 5.9839L113.141 5.98518ZM51.6145 68.2606L52.9698 68.4023L52.6106 68.9868L51.6145 68.2606H51.6145ZM325.071 71.1398L305.915 92.2912L289.44 92.6993L305.262 91.8661L325.071 71.1398ZM240.715 86.4819L222.411 92.6766C222.198 92.4479 221.987 92.2121 221.774 91.9858L240.715 86.4776L240.715 86.4819ZM322.343 108.001C325.162 110.029 327.746 111.873 330.802 114.059L320.106 110.018C320.863 109.35 321.604 108.673 322.343 107.999L322.343 108.001ZM314.44 114.82L334.623 121.745C331.208 124.599 328.049 127.764 325.201 131.221C302.961 139.153 281.493 146.858 270.321 150.88L269.912 141.104L261.454 143.973L209.202 127.927L181.884 170.593L180.708 169.725L153.145 208.92L162.763 186.338L151.806 188.446L173.833 178.882C173.833 178.882 192.84 153.123 194.424 150.26C195.949 147.503 209.71 126.919 210.753 125.358L212.892 127.36C212.892 127.36 256.713 141.676 258.824 142.821C259.195 143.022 258.494 141.582 256.996 139.049L259.347 141.67C284.334 135.11 301.045 125.571 314.442 114.82L314.44 114.82ZM396.215 133.771C400.487 135.56 404.451 137.995 407.988 140.944C405.618 144.546 403.328 149.628 401.146 154.918C399.167 155.882 397.183 156.85 395.251 157.77C390.724 153.957 385.004 151.59 378.76 151.358C378.237 150.334 377.702 149.281 377.176 148.241L396.215 133.771L396.215 133.771ZM414.65 147.728C421.407 156.139 425.476 166.963 425.476 178.775C425.476 178.852 425.477 178.928 425.476 179.005C421.323 179.233 416.049 180.524 410.699 182.034C408.928 181.082 407.165 180.132 405.441 179.183C405.281 172.55 402.912 166.489 399.089 161.72C399.92 159.626 400.797 157.47 401.669 155.326C406.599 152.886 411.334 150.333 414.651 147.728L414.65 147.728ZM374.253 150.455C374.163 150.83 374.082 151.215 373.992 151.589C373.451 151.664 372.906 151.764 372.375 151.872L374.253 150.455ZM64.967 152.492C65.0566 152.492 65.1545 152.492 65.2446 152.492C74.9865 152.492 83.9321 155.98 90.9788 161.826C88.9262 164.929 86.9437 169.301 85.0513 173.852C83.3513 174.674 81.6495 175.492 79.9894 176.278C75.9412 172.887 70.8285 170.782 65.2443 170.576C64.4334 168.996 63.6263 167.378 62.8114 165.758C63.9069 160.958 64.8224 156.25 64.9668 152.493L64.967 152.492ZM56.8679 153.36C57.8636 157.043 59.8834 161.508 62.1093 166.005C61.7355 167.611 61.367 169.213 60.9827 170.787C54.61 171.676 49.0002 175.065 45.1273 179.944C44.1909 179.767 43.2561 179.581 42.3187 179.395C39.1513 175.073 35.9298 170.999 33.0115 168.556C38.8894 160.907 47.2691 155.413 56.8678 153.36L56.8679 153.36ZM336.924 157.185C337.751 157.604 338.687 158.001 339.667 158.372L349.611 169.158L353.383 166.307C351.253 170.351 350.036 174.981 350.036 179.909C350.036 182.957 350.502 185.903 351.358 188.658C350.868 189.116 350.368 189.553 349.873 190.004C343.755 189.912 337.794 190.082 333.593 191.191C332.587 187.231 332.042 183.065 332.042 178.776C332.042 175.043 332.461 171.41 333.234 167.919C336.928 165.225 338.775 163.163 340.026 162.729L336.793 157.469C336.837 157.376 336.879 157.279 336.924 157.186L336.924 157.185ZM340.026 162.729L344.321 169.725C342.203 163.983 341.514 162.213 340.026 162.729ZM309.916 163.119C308.858 168.162 308.299 173.402 308.299 178.775C308.299 181.775 308.484 184.726 308.822 187.631C302.63 191.436 292.829 193.83 283.104 196.628L260.929 206.37L262.268 212.923L232.958 228.118L259.868 209.239C259.868 209.239 254.834 209.227 248.862 208.796C251.295 207.435 274.806 194.279 277.813 193.192C279.33 192.644 274.553 190.254 269.159 187.914L293.652 185.187V180.033L289.913 180.316L266.824 171.089L270.482 166.838L275.707 173.728L299.988 180.024C299.988 180.024 304.818 171.215 309.916 163.11L309.916 163.119ZM96.8421 167.777C102.792 175.145 106.378 184.617 106.378 194.963C106.378 195.031 106.378 195.108 106.378 195.176C102.779 195.372 98.2273 196.466 93.5926 197.762C92.0826 196.954 90.5731 196.141 89.1021 195.335C88.9585 189.437 86.8378 184.044 83.4197 179.803C84.1346 178.011 84.8902 176.165 85.6404 174.33C89.9007 172.226 93.971 170.019 96.8422 167.777L96.8421 167.777ZM262.905 175.676L288.215 180.458L256.7 182.902L262.905 175.676H262.905ZM28.4074 176.062C31.7977 177.766 36.7939 178.99 41.9768 180.047C42.4925 180.762 43.0162 181.471 43.5281 182.19C41.0268 186.16 39.5602 190.889 39.5602 195.969C39.5602 198.68 39.9859 201.293 40.7521 203.744C40.3704 204.098 39.9785 204.458 39.5928 204.807C34.2818 204.733 29.1193 204.876 25.4685 205.834C24.5824 202.365 24.1132 198.716 24.1132 194.959C24.1132 188.168 25.6647 181.755 28.4076 176.061L28.4074 176.062ZM410.632 182.703C415.555 185.321 420.435 187.721 424.447 188.849C422.152 200.119 416.091 209.94 407.694 216.833C404.944 213.661 400.937 210.25 396.721 206.915C396.377 205.151 396.033 203.398 395.708 201.655C400.635 197.32 404.071 191.235 405.114 184.333C406.929 183.791 408.777 183.24 410.632 182.704L410.632 182.703ZM350.051 190.638C350.727 190.651 351.399 190.673 352.076 190.691C355.113 198.378 361.292 204.383 368.976 207.021C369.028 208.167 369.082 209.307 369.123 210.457C365.642 214.967 362.361 219.476 360.42 223.385C350.311 218.903 342.057 210.822 337.103 200.698C340.946 198.657 345.506 194.785 350.051 190.638L350.051 190.638ZM93.5555 198.537C97.8039 200.778 102.012 202.829 105.475 203.798C103.455 213.669 98.1087 222.273 90.714 228.31C88.335 225.58 84.8853 222.646 81.2433 219.773C80.9518 218.281 80.6706 216.804 80.3942 215.328C84.7998 211.473 87.8715 206.058 88.8037 199.919C90.3641 199.455 91.9617 198.996 93.5554 198.537L93.5555 198.537ZM392.276 204.24C393.557 205.222 394.843 206.21 396.13 207.216C397.22 212.666 398.444 217.961 400 221.951C393.624 225.338 386.409 227.265 378.756 227.265C375.493 227.265 372.311 226.916 369.236 226.255C369.872 221.969 369.861 216.446 369.677 210.794C370.438 209.813 371.195 208.841 371.963 207.871C373.83 208.281 375.741 208.491 377.727 208.491C383.057 208.491 388.051 206.932 392.276 204.24V204.24ZM39.7566 205.532C40.2993 205.543 40.8462 205.553 41.3895 205.568C44.1054 212.405 49.6396 217.745 56.5102 220.091C56.5527 221.028 56.5742 221.969 56.6082 222.907C53.6007 226.792 50.7779 230.68 49.097 234.047C40.1958 230.122 32.9343 223.044 28.5718 214.176C31.8954 212.42 35.826 209.092 39.7569 205.533L39.7566 205.532ZM234.135 206.135C237.894 206.963 241.239 207.704 244.242 208.384C242.177 208.158 240.124 207.878 238.233 207.516C237.072 207.294 235.677 206.804 234.135 206.135L234.135 206.135ZM172.785 211.519L150.088 216.088L150.447 215.22L172.785 211.519L172.785 211.519ZM77.3259 217.611C78.4087 218.437 79.4885 219.282 80.5754 220.126C81.5238 224.815 82.5926 229.354 83.9391 232.79C78.3257 235.757 71.9817 237.448 65.2428 237.448C62.3697 237.448 59.5729 237.141 56.8662 236.563C57.4164 232.872 57.4117 228.125 57.2581 223.261C57.8902 222.452 58.5304 221.636 59.1686 220.835C60.8383 221.199 62.5529 221.402 64.3285 221.402C69.0945 221.402 73.5484 220.005 77.3262 217.612L77.3259 217.611Z" stroke="#7D7D7C" stroke-width="0.479172" stroke-linecap="square"/>
</g>
<path id="path3951" d="M378.761 109.4C341.863 109.4 311.957 140.464 311.957 178.778C311.957 217.094 341.863 248.156 378.761 248.156C415.658 248.156 445.564 217.092 445.564 178.778C445.564 140.463 415.658 109.4 378.761 109.4ZM378.455 130.277C378.557 130.278 378.658 130.277 378.761 130.277C389.825 130.277 399.985 134.271 407.989 140.945C405.49 144.742 403.076 150.184 400.79 155.78C406.038 153.21 411.133 150.493 414.649 147.732C421.407 156.144 425.475 166.966 425.475 178.78C425.475 178.857 425.475 178.931 425.475 179.009C421.088 179.25 415.461 180.657 409.802 182.278C415.004 185.067 420.215 187.663 424.452 188.855C422.157 200.125 416.1 209.95 407.702 216.842C404.782 213.473 400.445 209.84 395.943 206.308C397.08 212.083 398.356 217.75 400 221.966C393.625 225.353 386.415 227.281 378.761 227.281C375.498 227.281 372.32 226.928 369.246 226.267C369.92 221.72 369.875 215.779 369.659 209.769C365.98 214.507 362.471 219.29 360.431 223.4C350.322 218.918 342.065 210.832 337.109 200.708C341.145 198.565 345.965 194.401 350.736 190.021C344.318 189.9 337.991 190.021 333.59 191.187C332.584 187.226 332.046 183.069 332.046 178.779C332.046 171.026 333.814 163.697 336.929 157.196C341.021 159.265 347.169 160.717 353.446 161.975C349.622 156.68 345.688 151.606 342.154 148.631C348.829 139.898 358.343 133.617 369.244 131.272C370.451 135.76 372.98 141.257 375.708 146.739C377.083 140.806 378.277 134.912 378.454 130.278L378.455 130.277ZM375.709 146.738C375.219 148.849 374.738 150.944 374.236 153.008C367.479 153.955 361.539 157.557 357.432 162.758C356.104 162.506 354.782 162.242 353.447 161.974C354.217 163.041 354.97 164.099 355.727 165.167C353.075 169.4 351.526 174.435 351.526 179.85C351.526 182.74 351.97 185.535 352.783 188.147C352.106 188.778 351.418 189.394 350.736 190.02C351.648 190.039 352.555 190.053 353.465 190.077C356.345 197.365 362.212 203.061 369.497 205.562C369.56 206.964 369.608 208.359 369.659 209.769C370.547 208.624 371.423 207.492 372.316 206.366C374.086 206.754 375.909 206.958 377.791 206.958C382.845 206.958 387.573 205.476 391.579 202.924C393.031 204.037 394.48 205.162 395.942 206.308C395.556 204.351 395.189 202.408 394.829 200.477C399.501 196.367 402.763 190.599 403.751 184.055C405.742 183.46 407.762 182.861 409.802 182.277C407.865 181.238 405.939 180.197 404.057 179.161C403.904 172.873 401.667 167.127 398.042 162.605C398.93 160.367 399.853 158.07 400.789 155.779C398.644 156.83 396.493 157.86 394.398 158.857C390.105 155.243 384.682 152.998 378.761 152.778C377.748 150.795 376.724 148.778 375.709 146.737L375.709 146.738Z" fill="#666666" stroke="#7D7D7C" stroke-width="0.47918" stroke-linecap="square"/>
<path id="path3949" d="M65.2408 134.205C32.7525 134.205 6.41969 161.413 6.41969 194.973C6.41969 228.532 32.7525 255.74 65.2408 255.74C97.7291 255.74 124.062 228.532 124.062 194.973C124.062 161.413 97.7291 134.205 65.2408 134.205ZM64.972 152.49C65.062 152.491 65.1507 152.49 65.2408 152.49C74.9829 152.49 83.9292 155.988 90.9753 161.834C88.7751 165.16 86.65 169.926 84.6363 174.828C89.2577 172.577 93.7436 170.197 96.84 167.778C102.79 175.146 106.372 184.626 106.372 194.972C106.372 195.04 106.373 195.106 106.372 195.173C102.51 195.383 97.5543 196.617 92.5718 198.037C97.1522 200.48 101.74 202.753 105.471 203.797C103.451 213.668 98.117 222.274 90.7223 228.313C88.151 225.362 84.333 222.179 80.3681 219.086C81.3693 224.144 82.4937 229.108 83.9408 232.8C78.3272 235.767 71.9791 237.455 65.2406 237.455C62.3675 237.455 59.5692 237.147 56.8624 236.568C57.4562 232.585 57.4165 227.381 57.226 222.117C53.9866 226.267 50.8975 230.457 49.1008 234.056C40.1996 230.13 32.9287 223.048 28.5656 214.179C32.1191 212.303 36.3634 208.655 40.5639 204.819C34.9128 204.713 29.3416 204.819 25.4673 205.84C24.5812 202.371 24.1078 198.73 24.1078 194.973C24.1078 188.181 25.6646 181.762 28.4076 176.068C32.0105 177.879 37.4236 179.152 42.951 180.254C39.5842 175.616 36.1196 171.171 33.0079 168.566C38.8859 160.916 47.2632 155.415 56.862 153.361C57.9245 157.292 60.1516 162.107 62.5528 166.908C63.7641 161.712 64.8156 156.55 64.9714 152.49L64.972 152.49ZM62.5535 166.908C62.1222 168.757 61.6985 170.592 61.2572 172.4C55.3072 173.23 50.077 176.385 46.4609 180.94C45.2914 180.719 44.1268 180.488 42.9515 180.253C43.6295 181.187 44.293 182.114 44.9591 183.05C42.6238 186.757 41.2601 191.167 41.2601 195.91C41.2601 198.442 41.6512 200.889 42.3667 203.177C41.7706 203.73 41.1654 204.27 40.5645 204.818C41.3674 204.837 42.1658 204.848 42.9673 204.87C45.5031 211.253 50.669 216.242 57.0838 218.433C57.1395 219.66 57.1813 220.882 57.226 222.117C58.0083 221.115 58.7796 220.123 59.5656 219.136C61.1245 219.476 62.7292 219.655 64.387 219.655C68.837 219.655 73.0002 218.357 76.5275 216.122C77.8057 217.097 79.0816 218.082 80.3688 219.086C80.0294 217.371 79.7054 215.67 79.3888 213.979C83.5024 210.379 86.3751 205.327 87.2453 199.595C88.9978 199.074 90.7764 198.549 92.5725 198.038C90.8671 197.128 89.1714 196.216 87.514 195.308C87.3799 189.8 85.4099 184.768 82.2183 180.807C83.0001 178.847 83.8128 176.835 84.637 174.829C82.7477 175.75 80.8543 176.651 79.0093 177.525C75.2296 174.359 70.4543 172.393 65.2407 172.2C64.349 170.463 63.4474 168.697 62.5533 166.909L62.5535 166.908Z" fill="#364E59" stroke="#7D7D7C" stroke-width="0.47918" stroke-linecap="square"/>
<path id="back_wheel" d="M378.761 105.613C339.845 105.613 308.302 137.946 308.302 177.827C308.302 217.707 339.845 250.041 378.761 250.041C417.677 250.041 449.219 217.708 449.219 177.827C449.219 137.946 417.677 105.613 378.761 105.613ZM378.439 127.343C378.546 127.344 378.653 127.343 378.761 127.343C390.43 127.343 401.146 131.5 409.587 138.447C406.951 142.399 404.406 148.063 401.994 153.888C407.53 151.213 412.903 148.385 416.612 145.511C423.739 154.266 428.03 165.532 428.03 177.826C428.03 177.907 428.03 177.984 428.03 178.065C423.403 178.315 417.468 179.781 411.499 181.468C416.986 184.371 422.482 187.072 426.951 188.313C424.531 200.043 418.142 210.271 409.284 217.445C406.204 213.939 401.631 210.157 396.882 206.481C398.081 212.491 399.428 218.39 401.161 222.778C394.437 226.304 386.833 228.31 378.76 228.31C375.319 228.31 371.967 227.944 368.725 227.256C369.436 222.522 369.389 216.339 369.16 210.083C365.28 215.015 361.58 219.993 359.427 224.271C348.765 219.606 340.055 211.19 334.83 200.651C339.087 198.421 344.171 194.087 349.202 189.528C342.433 189.404 335.76 189.528 331.119 190.742C330.058 186.619 329.49 182.292 329.49 177.827C329.49 169.757 331.355 162.128 334.641 155.362C338.957 157.515 345.441 159.028 352.062 160.337C348.029 154.825 343.879 149.544 340.152 146.448C347.193 137.358 357.227 130.82 368.725 128.379C369.997 133.05 372.665 138.772 375.541 144.478C376.992 138.303 378.252 132.168 378.439 127.345L378.439 127.343ZM375.542 144.476C375.025 146.674 374.518 148.854 373.989 151.003C366.862 151.989 360.597 155.738 356.265 161.151C354.864 160.889 353.469 160.614 352.061 160.335C352.873 161.445 353.668 162.547 354.466 163.659C351.669 168.064 350.035 173.305 350.035 178.941C350.035 181.949 350.504 184.858 351.361 187.577C350.647 188.234 349.922 188.875 349.202 189.527C350.164 189.546 351.12 189.562 352.08 189.586C355.118 197.171 361.306 203.1 368.989 205.704C369.056 207.162 369.106 208.614 369.159 210.082C370.097 208.891 371.02 207.713 371.962 206.54C373.829 206.944 375.751 207.156 377.737 207.156C383.068 207.156 388.055 205.614 392.28 202.958C393.811 204.116 395.339 205.287 396.881 206.48C396.474 204.442 396.086 202.42 395.707 200.411C400.634 196.133 404.076 190.129 405.118 183.318C407.217 182.698 409.348 182.075 411.499 181.467C409.456 180.386 407.425 179.303 405.44 178.223C405.279 171.678 402.919 165.698 399.096 160.991C400.033 158.662 401.006 156.271 401.993 153.887C399.73 154.981 397.462 156.052 395.252 157.091C390.725 153.328 385.005 150.992 378.76 150.763C377.692 148.699 376.612 146.599 375.54 144.475L375.542 144.476Z" fill="url(#paint0_linear)" stroke="#7D7D7C" stroke-width="0.47918" stroke-linecap="square"/>
<path id="path3042" d="M248.004 209.35C245.893 208.778 225.111 204.238 225.111 204.238L179.386 174.566L209.201 128.012L261.456 144.042L269.901 141.18L270.957 166.37L256.706 182.973C256.706 182.973 280.986 192.134 277.819 193.279C274.652 194.424 248.004 209.35 248.004 209.35L248.004 209.35Z" fill="url(#paint1_linear)" stroke="black" stroke-width="0.47918"/>
<path id="front_wheel" d="M65.2408 129.888C30.4435 129.888 2.24203 159.028 2.24203 194.971C2.24203 230.914 30.4452 260.054 65.2408 260.054C100.036 260.054 128.239 230.914 128.239 194.971C128.239 159.028 100.036 129.888 65.2408 129.888ZM64.9529 149.472C65.0488 149.472 65.1443 149.472 65.2408 149.472C75.6747 149.472 85.2567 153.218 92.8036 159.479C90.4471 163.041 88.171 168.146 86.0144 173.396C90.964 170.985 95.7685 168.436 99.0849 165.845C105.457 173.737 109.294 183.889 109.294 194.971C109.294 195.042 109.294 195.114 109.294 195.185C105.157 195.411 99.8498 196.732 94.5135 198.252C99.4191 200.868 104.333 203.303 108.329 204.421C106.165 214.994 100.452 224.21 92.5326 230.677C89.7786 227.517 85.6894 224.108 81.4431 220.795C82.5154 226.212 83.7196 231.528 85.2695 235.483C79.2573 238.66 72.4583 240.469 65.2401 240.469C62.1628 240.469 59.1659 240.138 56.2668 239.518C56.9028 235.252 56.8604 229.68 56.6562 224.041C53.1867 228.486 49.8784 232.973 47.9539 236.828C38.4205 232.624 30.6334 225.039 25.9618 215.539C29.7677 213.529 34.3135 209.623 38.8121 205.514C32.7597 205.401 26.7927 205.514 22.6434 206.608C21.6943 202.893 21.1873 198.992 21.1873 194.969C21.1873 187.695 22.8547 180.82 25.7925 174.72C29.6511 176.661 35.4487 178.024 41.3686 179.204C37.7627 174.237 34.0521 169.476 30.7192 166.686C37.0147 158.493 45.987 152.601 56.2672 150.402C57.4052 154.611 59.7905 159.768 62.3623 164.911C63.6596 159.346 64.7857 153.816 64.9527 149.469L64.9529 149.472ZM62.3625 164.913C61.9006 166.894 61.4468 168.859 60.9741 170.795C54.6015 171.684 48.9999 175.063 45.1271 179.942C43.8744 179.706 42.6272 179.458 41.3684 179.207C42.0945 180.207 42.8052 181.2 43.5185 182.202C41.0173 186.172 39.5567 190.895 39.5567 195.975C39.5567 198.687 39.9756 201.308 40.7419 203.759C40.1035 204.351 39.4554 204.929 38.8117 205.516C39.6716 205.535 40.5268 205.548 41.3852 205.571C44.101 212.408 49.6339 217.752 56.5042 220.098C56.5639 221.412 56.6087 222.721 56.6566 224.044C57.4945 222.97 58.3205 221.908 59.1623 220.851C60.8321 221.216 62.5506 221.407 64.3262 221.407C69.0923 221.407 73.5511 220.017 77.3289 217.623C78.698 218.667 80.0645 219.722 81.443 220.797C81.0795 218.961 80.7325 217.138 80.3933 215.327C84.799 211.472 87.8759 206.061 88.8079 199.922C90.685 199.364 92.5899 198.802 94.5136 198.254C92.6871 197.28 90.8708 196.303 89.0958 195.331C88.9521 189.432 86.8423 184.042 83.424 179.8C84.2613 177.701 85.1317 175.546 86.0145 173.397C83.991 174.383 81.9632 175.349 79.9872 176.285C75.9389 172.893 70.8246 170.788 65.2406 170.581C64.2857 168.721 63.32 166.829 62.3624 164.914L62.3625 164.913Z" fill="url(#paint2_linear)" stroke="#7D7D7C" stroke-width="0.47918" stroke-linecap="square"/>
<path id="path2996" d="M139.531 193.802L173.84 178.916C173.84 178.916 192.843 153.153 194.426 150.29C196.01 147.428 211.316 124.527 211.316 124.527L201.815 117.084L144.282 93.6114L120.528 85.596L87.2753 75.8631L75.663 64.985L80.4135 50.6722L103.637 37.5041L119.473 34.0689C119.473 34.0689 133.196 16.3207 131.085 16.3207C128.974 16.3207 88.8583 43.2291 88.8583 43.2291L61.4114 49.5269L47.1597 67.8469L52.9659 68.4195L50.8546 71.8546L62.467 76.4349L53.4937 103.916L67.2175 110.786L74.6072 122.237L103.639 150.29L124.224 170.328L137.948 178.343L139.531 193.802Z" fill="#003EDC" stroke="black" stroke-width="0.47918"/>
<path id="path2998" d="M55.1564 53.3514L114.818 1L141.562 14.4418L85.3307 46.986L55.1564 53.3514Z" fill="url(#paint3_linear)" stroke="black" stroke-width="0.47918"/>
<path id="path3000" d="M47.9102 65.5892C47.9102 65.5892 26.518 85.5665 29.084 97.0963C30.9078 105.293 54.8102 104.7 54.8102 104.7L64.0488 77.2664L47.9102 65.5892Z" fill="url(#paint4_linear)" stroke="black" stroke-width="0.47918"/>
<path id="path3002" d="M87.3775 122.296C63.4057 124.113 38.4442 124.137 21.643 138.945L46.1189 144.735L51.7133 136.773L83.1815 136.049L106.259 143.288L87.3775 122.296Z" fill="#DC0000" stroke="black" stroke-width="0.47918"/>
<path id="path3004" d="M78.3013 64.4002C78.3013 64.4002 100.816 63.0742 112.084 62.6826C122.285 62.3278 132.548 60.9388 142.698 62.11C164.257 64.5978 187.419 66.0947 206.038 78.1406C228.84 92.8913 260.934 143.981 258.821 142.836C256.71 141.691 212.899 127.378 212.899 127.378L201.815 117.072C201.815 117.072 148.286 95.8165 121.055 86.7287C110.082 83.0664 87.8025 76.9958 87.8025 76.9958L78.3013 64.4002Z" fill="#E41919" stroke="black" stroke-width="0.47918"/>
<path id="path3006" d="M220.293 92.4427L206.57 78.7021L152.731 63.244C152.731 63.244 147.981 62.099 149.036 59.8089C150.092 57.5189 149.036 55.2288 153.787 51.7937C158.537 48.3585 188.651 40.5184 206.57 37.4806C214.583 36.122 225.737 29.5636 236.822 34.1437C247.906 38.7238 261.992 67.2515 261.992 67.2515L255.658 82.1369L220.293 92.4427Z" fill="#DC0000" stroke="black" stroke-width="0.47918"/>
<path id="path3008" d="M255.65 82.7111L272.541 93.5889L305.266 91.8713L335.353 60.3825L331.13 57.52L320.573 66.1075L293.654 70.6876L271.485 74.6954H258.817L255.65 82.7111Z" fill="#AC4949" stroke="black" stroke-width="0.47918"/>
<path id="path3010" d="M305.274 93.0098L333.778 61.5209L355.947 48.9254L393.95 29.4603L425.62 28.8878L395.006 56.3686L355.417 79.8417L330.609 92.4373H307.912L305.274 93.0098Z" fill="#DC0000" stroke="black" stroke-width="0.47918"/>
<path id="path3012" d="M391.835 27.1748L331.678 39.7703C331.678 39.7703 331.134 44.3506 328.495 51.2207C325.856 58.091 323.744 59.236 328.495 61.5263C333.246 63.8163 342.219 56.946 342.219 56.946L391.835 27.1748Z" fill="#BB5151" stroke="black" stroke-width="0.47918"/>
<path id="path3014" d="M219.756 93.5951L238.231 118.213L259.344 141.686C301.533 130.61 320.108 110.995 339.016 91.5007L276.234 93.0218L253.538 82.1438L219.756 93.5951Z" fill="#F0E4E4" stroke="black" stroke-width="0.47918"/>
<path id="path3020" d="M139.01 190.875L131.001 228.858L150.623 231.524L156.957 226.371L159.558 230.338L211.851 231.524L222.407 224.081L225.574 230.951L292.134 229.332L265.048 211.445L232.963 228.089L259.883 209.196C259.883 209.196 247.215 209.196 238.242 207.479C229.268 205.761 206.572 188.586 206.572 188.586L180.708 169.693L148.472 215.537L172.789 211.488L150.093 216.068L162.761 186.297L139.01 190.875Z" fill="url(#paint5_linear)" stroke="black" stroke-width="0.47918"/>
<path id="path3022" d="M260.927 206.424L263.038 216.729C275.204 206.221 314.393 204.86 320.572 193.829C322.683 189.821 330.601 169.783 330.601 169.783C341.584 162.758 340.042 158.169 344.325 169.783L333.768 152.607C333.768 152.607 324.267 158.905 321.628 163.485C318.989 168.065 315.294 177.798 315.294 177.798C315.61 188.474 299.243 192.046 283.096 196.691L260.927 206.424Z" fill="url(#paint6_linear)" stroke="black" stroke-width="0.47918"/>
<path id="path3024" d="M349.605 169.162L328.498 146.259L418.957 80.7355C430.833 84.886 439.586 87.5312 437.432 102.491L349.605 169.162Z" fill="url(#paint7_linear)" stroke="black" stroke-width="0.47918"/>
<path id="path3034" d="M241.707 178.038C241.723 180.566 241.277 183.073 240.393 185.414C239.51 187.755 238.207 189.884 236.559 191.678C234.911 193.472 232.951 194.896 230.793 195.868C228.634 196.84 226.318 197.34 223.98 197.34C221.641 197.34 219.326 196.84 217.167 195.868C215.008 194.896 213.048 193.472 211.401 191.678C209.753 189.884 208.45 187.755 207.566 185.414C206.683 183.073 206.236 180.566 206.253 178.038C206.236 175.509 206.683 173.002 207.566 170.661C208.45 168.32 209.753 166.191 211.401 164.397C213.048 162.603 215.008 161.179 217.167 160.207C219.326 159.235 221.641 158.735 223.98 158.735C226.318 158.735 228.634 159.235 230.793 160.207C232.951 161.179 234.911 162.603 236.559 164.397C238.207 166.191 239.51 168.32 240.393 170.661C241.277 173.002 241.723 175.509 241.707 178.038Z" fill="#C77332" stroke="#7D7D7C" stroke-width="0.479189" stroke-linecap="square"/>
<path id="path3038" d="M228.475 185.291C229.031 184.855 219.314 185.932 219.94 186.237C220.567 186.542 214.848 177.953 214.918 178.694C214.988 179.434 218.985 169.768 218.429 170.204C217.873 170.64 227.589 169.562 226.963 169.258C226.337 168.953 232.056 177.541 231.986 176.801C231.916 176.06 227.918 185.727 228.475 185.291V185.291Z" fill="#2D2D2D" stroke="#7D7D7C" stroke-width="0.479176" stroke-linecap="square"/>
<path id="path3044" d="M260.927 154.272L275.706 173.737L299.987 180.035C299.987 180.035 310.966 159.997 317.299 152.554C323.633 145.111 340.103 124.5 340.103 124.5C340.103 124.5 369.961 116.109 366.795 116.681C363.628 117.254 260.928 154.271 260.928 154.271L260.927 154.272Z" fill="#3A3AF4" stroke="black" stroke-width="0.47918"/>
<path id="path3046" d="M344.328 125.077L302.629 110.764L308.435 105.611L343.273 118.779L344.328 125.077Z" fill="#FF0707" stroke="#FA0505" stroke-width="0.47918"/>
<g id="path3048">
<path d="M344.866 123.942C342.754 122.797 312.668 101.042 312.668 101.042L320.586 94.1717L344.867 114.782L340.116 121.08L343.283 116.5L341.172 118.217" fill="#F92316"/>
<path d="M344.866 123.942C342.754 122.797 312.668 101.042 312.668 101.042L320.586 94.1717L344.867 114.782L340.116 121.08L343.283 116.5L341.172 118.217" stroke="black" stroke-width="0.47918"/>
</g>
<path id="path3052" d="M293.662 180.082L256.714 182.945L257.77 189.243L293.663 185.235L293.662 180.082Z" stroke="black" stroke-width="0.47918"/>
<g id="path3054" filter="url(#filter2_f)">
<path d="M109.902 121.474L139.76 137.666L132.296 163.575L157.675 132.808L97.9559 106.899L109.902 121.474Z" fill="#FF6600"/>
<path d="M109.902 121.474L139.76 137.666L132.296 163.575L157.675 132.808L97.9559 106.899L109.902 121.474Z" stroke="black" stroke-width="0.479172"/>
</g>
<path id="path4262" opacity="0.97073" d="M98.368 90.7241C98.368 92.8498 97.7007 94.8885 96.5128 96.3916C95.325 97.8947 93.7139 98.7392 92.034 98.7392C90.3541 98.7392 88.7431 97.8947 87.5552 96.3916C86.3673 94.8885 85.7 92.8498 85.7 90.7241C85.7 88.5983 86.3673 86.5597 87.5552 85.0565C88.7431 83.5534 90.3541 82.709 92.034 82.709C93.7139 82.709 95.325 83.5534 96.5128 85.0565C97.7007 86.5597 98.368 88.5983 98.368 90.7241Z" fill="#0E232E" stroke="#7D7D7C" stroke-width="0.479172" stroke-linecap="square"/>
<path id="path4264" opacity="0.75122" d="M92.0474 94.5463C92.0474 94.5463 90.9914 84.3719 89.4254 79.47C87.3569 72.9946 85.9405 66.382 85.9405 66.382" stroke="#292626" stroke-width="0.47918"/>
<path id="path4328" opacity="0.50732" d="M47.9102 65.5892C47.9102 65.5892 26.518 85.5665 29.084 97.0963C30.9078 105.293 54.8102 104.7 54.8102 104.7L64.0488 77.2664L47.9102 65.5892Z" fill="url(#paint8_linear)" stroke="black" stroke-width="0.47918"/>
</g>
<defs>
<filter id="filter0_f" x="0.331999" y="239.665" width="473.953" height="37.5416" filterUnits="userSpaceOnUse" color-interpolation-filters="sRGB">
<feFlood flood-opacity="0" result="BackgroundImageFix"/>
<feBlend mode="normal" in="SourceGraphic" in2="BackgroundImageFix" result="shape"/>
<feGaussianBlur stdDeviation="3.0227" result="effect1_foregroundBlur"/>
</filter>
<filter id="filter1_f" x="1.03328" y="4.77722" width="449.381" height="256.475" filterUnits="userSpaceOnUse" color-interpolation-filters="sRGB">
<feFlood flood-opacity="0" result="BackgroundImageFix"/>
<feBlend mode="normal" in="SourceGraphic" in2="BackgroundImageFix" result="shape"/>
<feGaussianBlur stdDeviation="0.484024" result="effect1_foregroundBlur"/>
</filter>
<filter id="filter2_f" x="96.1794" y="105.088" width="63.474" height="60.2305" filterUnits="userSpaceOnUse" color-interpolation-filters="sRGB">
<feFlood flood-opacity="0" result="BackgroundImageFix"/>
<feBlend mode="normal" in="SourceGraphic" in2="BackgroundImageFix" result="shape"/>
<feGaussianBlur stdDeviation="0.795586" result="effect1_foregroundBlur"/>
</filter>
<linearGradient id="paint0_linear" x1="378.761" y1="105.613" x2="378.761" y2="250.041" gradientUnits="userSpaceOnUse">
<stop offset="0.526042" stop-color="#540101"/>
<stop offset="1" stop-color="#FE0E0E" stop-opacity="0"/>
</linearGradient>
<linearGradient id="paint1_linear" x1="212.169" y1="139.287" x2="256.759" y2="194.101" gradientUnits="userSpaceOnUse">
<stop stop-color="#060606"/>
<stop offset="1" stop-color="#0E232E"/>
</linearGradient>
<linearGradient id="paint2_linear" x1="39.7375" y1="252.639" x2="11.138" y2="206.885" gradientUnits="userSpaceOnUse">
<stop stop-color="#EB5151"/>
<stop offset="1" stop-color="#0E232E"/>
</linearGradient>
<linearGradient id="paint3_linear" x1="123.696" y1="11.7152" x2="75.8507" y2="43.5127" gradientUnits="userSpaceOnUse">
<stop stop-color="#2D2D2D"/>
<stop offset="1" stop-color="#2D2D2D" stop-opacity="0"/>
</linearGradient>
<linearGradient id="paint4_linear" x1="51.9123" y1="74.6877" x2="28.1754" y2="83.6432" gradientUnits="userSpaceOnUse">
<stop stop-color="#CCCCCC"/>
<stop offset="1" stop-color="white"/>
</linearGradient>
<linearGradient id="paint5_linear" x1="190.522" y1="190.295" x2="170.264" y2="224.536" gradientUnits="userSpaceOnUse">
<stop stop-color="#243137"/>
<stop offset="1" stop-color="#666666"/>
</linearGradient>
<linearGradient id="paint6_linear" x1="324.883" y1="170.867" x2="271.774" y2="202.546" gradientUnits="userSpaceOnUse">
<stop stop-color="#E6E7ED"/>
<stop offset="1" stop-color="#666666"/>
</linearGradient>
<linearGradient id="paint7_linear" x1="383.855" y1="139.287" x2="368.59" y2="125.956" gradientUnits="userSpaceOnUse">
<stop stop-color="#CFCFDD"/>
<stop offset="1" stop-color="#999999"/>
</linearGradient>
<linearGradient id="paint8_linear" x1="30.7972" y1="91.8661" x2="47.0717" y2="84.8615" gradientUnits="userSpaceOnUse">
<stop stop-color="#364E59"/>
<stop offset="1" stop-color="#364E59" stop-opacity="0"/>
</linearGradient>
</defs>
</svg>
