<svg width="200" height="200" viewBox="0 0 20 21" fill="none" xmlns="http://www.w3.org/2000/svg">
<g id="layer1">
<g id="g3191">
<path id="path3173" d="M11.1898 7.6502C11.1898 7.6502 12.9576 7.10784 12.8629 12.569C12.804 15.983 14.1413 17.6198 15.483 17.6513C16.825 17.6829 18.1031 16.4517 18.1347 14.4314C18.1663 12.4104 17.2192 12.7268 17.2192 10.7065C17.2192 8.6859 18.0084 7.6094 16.6195 4.8981C15.2305 2.1868 13.7784 1.6151 13.7784 1.6151C13.7784 1.6151 16.872 3.1776 17.9453 5.0875" stroke="black" stroke-width="2.4" stroke-linecap="round" stroke-linejoin="round"/>
<path id="rect3175" d="M10.7666 1.2H3.24559C2.81249 1.2 2.4614 1.61952 2.4614 2.13702V18.234C2.4614 18.7515 2.81249 19.171 3.24559 19.171H10.7666C11.1997 19.171 11.5508 18.7515 11.5508 18.234V2.13702C11.5508 1.61952 11.1997 1.2 10.7666 1.2Z" stroke="black" stroke-width="2.4" stroke-linecap="round"/>
<path id="path3179" d="M1.5 19.187H12.5" stroke="black" stroke-width="3" stroke-linecap="round"/>
</g>
<g id="g3182">
<path id="path3181" d="M11.1904 7.68C11.1904 7.68 12.9582 7.13764 12.8635 12.5988C12.8046 16.0128 14.1419 17.6496 15.4836 17.6811C16.8256 17.7127 18.1037 16.4815 18.1353 14.4612C18.1669 12.4402 17.2199 12.7566 17.2199 10.7363C17.2199 8.7157 18.009 7.6392 16.6201 4.9279C15.2311 2.2159 13.779 1.6449 13.779 1.6449C13.779 1.6449 16.8726 3.2074 17.9459 5.1173" stroke="#FFFEFE" stroke-width="1.4"/>
<path id="rect3183" d="M10.767 1.229H3.24599C2.81289 1.229 2.4618 1.64852 2.4618 2.16602V18.263C2.4618 18.7805 2.81289 19.2 3.24599 19.2H10.767C11.2001 19.2 11.5512 18.7805 11.5512 18.263V2.16602C11.5512 1.64852 11.2001 1.229 10.767 1.229Z" fill="#FF0000" stroke="#FFFEFE" stroke-width="1.2" stroke-linecap="round"/>
<path id="rect3185" d="M9.43146 3.014H4.49454C4.21026 3.014 3.9798 3.2502 3.9798 3.54158V8.58942C3.9798 8.88079 4.21026 9.117 4.49454 9.117H9.43146C9.71574 9.117 9.9462 8.88079 9.9462 8.58942V3.54158C9.9462 3.2502 9.71574 3.014 9.43146 3.014Z" fill="black" stroke="#FFFEFE" stroke-width="0.4" stroke-linecap="round"/>
<path id="path3187" d="M1.5008 19.216H12.5008" stroke="#FFFEFE" stroke-width="1.8" stroke-linecap="round"/>
</g>
</g>
</svg>
