<svg width="200" height="200" viewBox="0 0 506 449" fill="none" xmlns="http://www.w3.org/2000/svg">
<g id="Group">
<g id="Group_2">
<g id="Group_3">
<path id="Vector" d="M117.431 226.33H72.758V271.025H117.431V226.33Z" fill="#FF1010"/>
<path id="Vector_2" d="M117.431 296.996H72.758V341.648H117.431V296.996Z" fill="#F72A2A"/>
<path id="Vector_3" d="M192.303 155.621H147.63V200.294H192.303V155.621Z" fill="#F72A2A"/>
<path id="Vector_4" d="M192.303 226.33H147.63V271.025H192.303V226.33Z" fill="#F53535"/>
<path id="Vector_5" d="M192.303 296.996H147.63V341.648H192.303V296.996Z" fill="#F72A2A"/>
<path id="Vector_6" d="M415.842 162.049V31.719C415.842 14.419 401.713 0.290009 384.413 0.290009H31.429C14.129 0.290009 0 14.419 0 31.719V384.682C0 401.982 14.129 416.111 31.429 416.111H261.827C287.453 436.625 319.917 448.942 355.293 448.942C438.082 448.942 505.232 381.857 505.232 299.068C505.209 237.871 468.431 185.324 415.842 162.049ZM136.219 31.158H279.492V68.195H136.219V31.158ZM38.612 103.571H377.187V150.984C370.025 149.927 362.735 149.194 355.271 149.194C322.289 149.194 291.896 159.979 267.133 178.034V155.6H222.481V200.273H242.779C219.59 226.654 205.44 261.167 205.44 299.067C205.44 326.117 212.709 351.419 225.22 373.314H38.612V103.571ZM341.53 176.976C341.53 169.362 347.721 163.257 355.271 163.257C362.907 163.257 369.012 169.362 369.033 176.976C369.033 184.569 362.907 190.717 355.271 190.717C347.743 190.717 341.53 184.569 341.53 176.976ZM246.942 299.089C246.942 306.703 240.816 312.873 233.18 312.873C225.566 312.873 219.439 306.704 219.439 299.089C219.439 291.474 225.565 285.37 233.18 285.37C240.795 285.37 246.921 291.474 246.942 299.089ZM355.271 434.941C347.721 434.941 341.53 428.815 341.53 421.244C341.53 413.608 347.721 407.439 355.271 407.439C362.907 407.439 369.012 413.587 369.033 421.244C369.033 428.794 362.907 434.941 355.271 434.941ZM438.491 237.116L380.962 294.559C381.35 296.328 382.041 297.967 382.041 299.844C382.041 314.749 369.94 326.851 355.034 326.851C340.646 326.851 329.127 315.483 328.351 301.246L267.241 253.769C261.956 249.627 260.705 242.337 264.545 237.462C268.363 232.522 275.783 231.918 281.068 236.06L337 279.589C341.832 275.059 348.217 272.169 355.314 272.169C360.016 272.169 364.201 273.679 368.041 275.793L422.55 221.219C427.641 216.15 435.341 215.654 439.656 220.033C443.991 224.389 443.495 232.025 438.491 237.116ZM477.361 312.851C469.768 312.851 463.62 306.682 463.62 299.067C463.62 291.452 469.768 285.348 477.361 285.348C484.976 285.348 491.145 291.453 491.145 299.067C491.145 306.681 484.997 312.851 477.361 312.851Z" fill="#F53535"/>
</g>
</g>
</g>
</svg>
