<svg width="200" height="200" viewBox="0 0 601 572" fill="none" xmlns="http://www.w3.org/2000/svg">
<g id="g104990">
<g id="g104992">
<g id="g104994">
<path id="path105000" d="M478.723 464.477C462.109 483.155 446.285 501.365 431.141 519.173C430.151 506.949 428.812 495.968 427.156 486.125C426.121 479.969 424.761 474.576 423.113 469.977C421.757 461.961 419.503 455.879 416.467 451.624C412.532 446.324 407.932 442.887 402.776 441.205C400.051 440.503 386.833 442.819 386.045 443.743C382.579 444.595 379.851 446.031 377.851 448.013C374.287 452.081 372.057 457.356 371.384 463.945C370.915 469.156 372.097 475.531 374.977 483.117C375.885 487.929 377.481 493.264 379.703 499.081C383.281 508.407 387.713 518.567 393.061 529.569C371.004 521.944 348.089 514.312 324.288 506.687C308.06 501.451 291.617 496.479 274.917 491.773C259.445 486.84 243.807 482.164 228.003 477.807L243.74 509.237C261.488 513.927 278.673 518.6 295.328 523.287C333.287 533.937 369.016 544.712 402.793 555.611C409.361 557.733 415.899 559.852 422.388 562.021C426.884 556.852 431.439 551.695 436.015 546.539C459.581 519.987 484.855 492.536 512.105 464.072C524.085 451.556 536.523 438.779 549.419 425.716L546.936 390.655C535.575 402.441 524.489 414.408 513.668 426.541C501.675 439.091 490.056 451.739 478.723 464.477Z" fill="#3CF770"/>
<path id="path105002" d="M234.745 529.421C210.268 524.38 186.584 519.775 163.593 515.567C173.683 508.597 182.521 501.951 190.219 495.591C195.035 491.611 199.024 487.739 202.179 484.02C208.445 478.833 212.585 473.837 214.755 469.08C217.377 463.025 218.052 457.317 216.933 452.019C216.179 449.311 207.565 439.015 206.365 438.795C203.895 436.219 201.291 434.576 198.571 433.833C193.265 432.787 187.587 433.489 181.537 436.201C176.797 438.396 171.864 442.612 166.737 448.9C163.023 452.091 159.2 456.139 155.268 460.971C148.991 468.733 142.407 477.655 135.545 487.785C131.123 464.868 126.28 441.213 120.979 416.783C117.4 400.112 113.484 383.388 109.211 366.577C105.744 350.705 101.977 334.825 97.8453 318.963L78.496 348.304C83.3053 366.023 87.856 383.24 92.1213 400.005C101.875 438.2 110.408 474.532 117.861 509.237C119.311 515.981 120.743 522.701 122.111 529.409C128.835 530.717 135.576 532.083 142.328 533.468C177.107 540.599 213.517 548.763 251.793 558.131C268.623 562.249 285.911 566.632 303.671 571.269L332.791 551.589C316.903 547.64 300.992 544.023 285.076 540.717C268.212 536.607 251.451 532.871 234.745 529.421Z" fill="#758B8B"/>
<path id="path105004" d="M56.52 350.608C48.6453 326.889 40.7907 304.079 32.9413 282.064C44.0253 287.312 54.2013 291.641 63.5573 295.129C69.408 297.311 74.7573 298.827 79.56 299.7C87.1826 302.535 93.5746 303.628 98.7813 303.12C105.341 302.365 110.616 300.1 114.645 296.476C116.615 294.469 121.22 281.868 120.815 280.716C121.815 277.288 121.937 274.208 121.217 271.483C119.467 266.364 116.017 261.797 110.649 257.916C106.376 254.909 100.256 252.744 92.2493 251.447C87.6306 249.824 82.2107 248.541 76.064 247.553C66.2 245.995 55.1813 244.753 42.9787 243.88C60.612 228.584 78.6787 212.568 97.1853 195.767C109.832 184.325 122.357 172.573 134.779 160.464C146.791 149.528 158.663 138.329 170.335 126.817L135.244 124.735C122.309 137.753 109.675 150.304 97.2907 162.384C69.0827 189.927 41.8893 215.484 15.5613 239.288C10.4427 243.915 5.34133 248.515 0.214661 253.052C2.44399 259.531 4.62933 266.056 6.80666 272.593C18.0187 306.28 29.1533 341.892 40.1827 379.724C45.028 396.357 49.8813 413.517 54.7387 431.219L86.3466 446.599C81.8226 430.867 76.996 415.284 71.904 399.84C67.0306 383.18 61.8827 366.801 56.52 350.608Z" fill="#56433F"/>
<path id="path105006" d="M122.263 106.849C138.872 88.1747 154.701 69.964 169.84 52.1547C170.832 64.3787 172.169 75.3614 173.827 85.204C174.861 91.36 176.224 96.7533 177.869 101.351C179.224 109.367 181.477 115.451 184.52 119.704C188.453 125.009 193.053 128.441 198.205 130.124C200.929 130.827 204.019 130.657 207.429 129.636C208.573 130.035 221.136 125.303 223.135 123.315C226.695 119.248 228.923 113.972 229.601 107.384C230.067 102.176 228.885 95.796 226.004 88.212C225.101 83.404 223.5 78.064 221.28 72.248C217.699 62.9213 213.268 52.7613 207.921 41.7586C229.983 49.3853 252.891 57.0146 276.699 64.6413C292.92 69.8786 309.365 74.848 326.063 79.556C341.54 84.488 357.175 89.1653 372.977 93.5213L357.243 62.092C339.499 57.4013 322.308 52.728 305.653 48.0413C267.699 37.3893 231.965 26.616 198.188 15.7174C191.621 13.6 185.088 11.476 178.592 9.30664C174.097 14.476 169.548 19.6373 164.972 24.7893C141.405 51.3426 116.129 78.7933 88.876 107.256C76.8946 119.772 64.464 132.552 51.5613 145.613L54.044 180.673C65.412 168.887 76.496 156.92 87.3173 144.787C99.308 132.237 110.924 119.589 122.263 106.849Z" fill="#E54039"/>
<path id="path105008" d="M366.233 41.9081C390.713 46.948 414.397 51.5547 437.387 55.7613C427.295 62.7307 418.457 69.3773 410.761 75.7386C405.945 79.7173 401.959 83.588 398.803 87.3133C392.535 92.4947 388.392 97.4907 386.228 102.248C383.604 108.307 382.925 114.009 384.049 119.309C384.803 122.023 393.417 132.313 394.615 132.535C397.085 135.109 399.692 136.757 402.408 137.499C407.712 138.541 413.399 137.839 419.44 135.128C424.187 132.932 429.117 128.717 434.244 122.429C437.96 119.239 441.78 115.188 445.708 110.359C451.992 102.595 458.577 93.6734 465.435 83.5427C469.859 106.461 474.705 130.119 480.003 154.544C483.584 171.216 487.496 187.94 491.772 204.756C495.237 220.624 499.005 236.503 503.136 252.367L522.485 223.027C517.676 205.311 513.127 188.088 508.856 171.327C499.107 133.127 490.569 96.796 483.121 62.0947C481.672 55.3507 480.239 48.6254 478.875 41.9187C472.147 40.6107 465.405 39.2467 458.652 37.864C423.876 30.7294 387.464 22.5654 349.188 13.1974C332.359 9.07869 315.072 4.69868 297.315 0.0586853L268.191 19.7387C284.08 23.688 299.984 27.3053 315.907 30.6107C332.771 34.7213 349.531 38.4574 366.233 41.9081Z" fill="#EFA038"/>
<path id="path105010" d="M544.463 220.721C552.335 244.444 560.191 267.249 568.041 289.267C556.956 284.016 546.78 279.685 537.428 276.199C531.575 274.017 526.228 272.504 521.421 271.627C513.801 268.792 507.407 267.7 502.199 268.208C495.644 268.963 490.365 271.229 486.336 274.852C484.365 276.861 479.76 289.465 480.168 290.613C479.172 294.04 479.049 297.121 479.765 299.845C481.515 304.964 484.964 309.529 490.331 313.413C494.607 316.419 500.724 318.584 508.732 319.881C513.356 321.504 518.775 322.788 524.921 323.775C534.787 325.339 545.803 326.576 558.004 327.448C540.368 342.745 522.305 358.764 503.796 375.564C491.153 387.003 478.625 398.756 466.203 410.864C454.192 421.801 442.323 433.003 430.651 444.511L465.737 446.599C478.672 433.575 491.305 421.025 503.695 408.949C531.9 381.401 559.096 355.844 585.421 332.041C590.539 327.416 595.644 322.812 600.771 318.276C598.541 311.797 596.352 305.272 594.173 298.74C582.963 265.048 571.829 229.436 560.801 191.604C555.953 174.971 551.101 157.811 546.243 140.111L514.639 124.729C519.16 140.461 523.985 156.049 529.083 171.488C533.951 188.148 539.097 204.531 544.463 220.721Z" fill="#55B8C2"/>
</g>
</g>
</g>
</svg>
