<?xml version="1.0" encoding="iso-8859-1"?>
<!-- Generator: Adobe Illustrator 19.0.0, SVG Export Plug-In . SVG Version: 6.00 Build 0)  -->
<svg version="1.1" id="Capa_1" xmlns="http://www.w3.org/2000/svg" xmlns:xlink="http://www.w3.org/1999/xlink" x="0px" y="0px"
	 viewBox="0 0 512 512" style="enable-background:new 0 0 512 512;" xml:space="preserve">
<g>
	<g>
		<path d="M464.561,228.59l-23.181-9.428v-47.025h17.655v17.655h17.655V163.31c0-4.873-3.955-8.828-8.828-8.828h-27.736
			C436.18,139.299,422.471,128,406.069,128H35.31C15.837,128,0,143.837,0,163.31v158.897c0,19.474,15.837,35.31,35.31,35.31h18.909
			C58.165,372.701,71.874,384,88.276,384c16.402,0,30.111-11.299,34.057-26.483H291.31h70.621h27.736
			C393.613,372.701,407.322,384,423.724,384s30.111-11.299,34.057-26.483h45.391c4.873,0,8.828-3.955,8.828-8.828v-28.142
			C512,284.813,494.257,240.649,464.561,228.59z M88.276,366.345c-9.728,0-17.646-7.91-17.655-17.638c0-0.009,0-0.009,0-0.018
			c0-0.009,0-0.009,0-0.018c0.009-9.728,7.927-17.638,17.655-17.638c9.737,0,17.655,7.918,17.655,17.655
			C105.931,358.427,98.013,366.345,88.276,366.345z M353.103,339.862h-52.966v-17.655h52.966V339.862z M300.138,304.552V180.966
			h17.655v123.586H300.138z M353.103,304.552h-17.655V180.966h17.655V304.552z M423.724,366.345
			c-9.737,0-17.655-7.918-17.655-17.655c0-9.737,7.918-17.655,17.655-17.655c9.737,0,17.655,7.918,17.655,17.655
			C441.379,358.427,433.461,366.345,423.724,366.345z M494.345,339.862h-36.564c-3.946-15.183-17.655-26.483-34.057-26.483
			s-30.111,11.299-34.057,26.483h-18.909v-26.483V172.138c0-4.873-3.955-8.828-8.828-8.828H291.31c-4.873,0-8.828,3.955-8.828,8.828
			v141.241v26.483h-160.15c-3.946-15.183-17.655-26.483-34.057-26.483c-16.402,0-30.111,11.299-34.057,26.483H35.31
			c-9.737,0-17.655-7.918-17.655-17.655V163.31c0-9.737,7.918-17.655,17.655-17.655h370.759c9.737,0,17.655,7.918,17.655,17.655
			h-26.483c-4.873,0-8.828,3.955-8.828,8.828v52.966c0,4.873,3.955,8.828,8.828,8.828h33.589l27.083,11.008
			c19.747,8.015,36.431,42.646,36.431,75.608V339.862z M423.724,180.966v35.31h-17.655v-35.31H423.724z"/>
	</g>
</g>
<g>
	<g>
		<path d="M256,163.31h-52.966h-52.966H97.103H44.138c-4.873,0-8.828,3.955-8.828,8.828v52.966c0,4.873,3.955,8.828,8.828,8.828
			h52.966h52.966h52.966H256c4.873,0,8.828-3.955,8.828-8.828v-52.966C264.828,167.265,260.873,163.31,256,163.31z M88.276,216.276
			h-35.31v-35.31h35.31V216.276z M141.241,216.276h-35.31v-35.31h35.31V216.276z M194.207,216.276h-35.31v-35.31h35.31V216.276z
			 M247.172,216.276h-35.31v-35.31h35.31V216.276z"/>
	</g>
</g>
<g>
	<g>
		<path d="M256,251.586H44.138c-4.873,0-8.828,3.955-8.828,8.828c0,4.873,3.955,8.828,8.828,8.828H256
			c4.873,0,8.828-3.955,8.828-8.828C264.828,255.541,260.873,251.586,256,251.586z"/>
	</g>
</g>
<g>
	<g>
		<path d="M256,286.897H133.517c-4.873,0-8.828,3.955-8.828,8.828c0,4.873,3.955,8.828,8.828,8.828H256
			c4.873,0,8.828-3.955,8.828-8.828C264.828,290.851,260.873,286.897,256,286.897z"/>
	</g>
</g>
<g>
	<g>
		<path d="M432.552,260.414h-35.31c-4.873,0-8.828,3.955-8.828,8.828c0,4.873,3.955,8.828,8.828,8.828h35.31
			c4.873,0,8.828-3.955,8.828-8.828C441.379,264.369,437.425,260.414,432.552,260.414z"/>
	</g>
</g>
<g>
</g>
<g>
</g>
<g>
</g>
<g>
</g>
<g>
</g>
<g>
</g>
<g>
</g>
<g>
</g>
<g>
</g>
<g>
</g>
<g>
</g>
<g>
</g>
<g>
</g>
<g>
</g>
<g>
</g>
</svg>
